<svg width="30" height="26" viewBox="0 0 30 26" fill="none" xmlns="http://www.w3.org/2000/svg">
<path fill-rule="evenodd" clip-rule="evenodd" d="M6.50824 11.1287L14.5718 19.337L22.5493 11.2163L29.0902 17.8746L21.4906 25.6106L19.5355 23.6735L25.2322 17.8746L22.5493 15.1435L14.5718 23.2642L6.50824 15.0559L3.85799 17.7537L9.64133 23.6409L7.68629 25.578L0 17.7537L6.50824 11.1287Z" fill="white"/>
<path fill-rule="evenodd" clip-rule="evenodd" d="M22.582 15.0557L14.5184 6.8474L6.54091 14.9681L2.28882e-05 8.3098L7.59967 0.573738L9.55471 2.51084L3.85801 8.3098L6.54091 11.0409L14.5184 2.92017L22.582 11.1285L25.2322 8.43066L19.4489 2.5435L21.4039 0.606395L29.0902 8.43066L22.582 15.0557Z" fill="white"/>
<path fill-rule="evenodd" clip-rule="evenodd" d="M13.3147 25.4178L13.3147 20.2463H15.9479L15.9479 25.4178H13.3147Z" fill="white"/>
<path fill-rule="evenodd" clip-rule="evenodd" d="M13.3147 5.93817L13.3147 0.766613L15.9479 0.766613L15.9479 5.93817L13.3147 5.93817Z" fill="white"/>
</svg>
